<svg width="143" height="35" viewBox="0 0 143 35" fill="none" xmlns="http://www.w3.org/2000/svg">
<path d="M17.5 0L19.9652 9.10444L26.9612 2.77806L24.1128 11.77L33.4186 10.2302L26.1609 16.2547L34.8219 19.9905L25.4593 21.1349L30.7256 28.9601L22.2306 24.861L22.4303 34.2911L17.5 26.25L12.5697 34.2911L12.7694 24.861L4.27438 28.9601L9.54072 21.1349L0.178125 19.9905L8.83906 16.2547L1.58144 10.2302L10.8872 11.77L8.03879 2.77806L15.0348 9.10444L17.5 0Z" fill="#598D66"/>
<path d="M44.48 25V10.8H47.24V25H44.48ZM59.6827 25H57.0027V19.12C57.0027 18.28 56.856 17.6667 56.5627 17.28C56.2693 16.8933 55.8627 16.7 55.3427 16.7C54.9827 16.7 54.616 16.7933 54.2427 16.98C53.8827 17.1667 53.556 17.4267 53.2627 17.76C52.9693 18.08 52.756 18.4533 52.6227 18.88V25H49.9427V14.52H52.3627V16.46C52.7493 15.8067 53.3093 15.2933 54.0427 14.92C54.776 14.5333 55.6027 14.34 56.5227 14.34C57.176 14.34 57.7093 14.46 58.1227 14.7C58.536 14.9267 58.856 15.24 59.0827 15.64C59.3093 16.0267 59.4627 16.4667 59.5427 16.96C59.636 17.4533 59.6827 17.9533 59.6827 18.46V25ZM69.173 25L66.113 20.48L64.693 21.88V25H62.013V10.4H64.693V19.24L68.913 14.54H71.753L67.853 18.98L72.033 25H69.173ZM73.1053 25V22.12H75.3053V25H73.1053ZM94.6622 10.8V25H91.9222V18.94H85.4822V25H82.7222V10.8H85.4822V16.54H91.9222V10.8H94.6622ZM102.029 25.2C100.882 25.2 99.8954 24.9533 99.0688 24.46C98.2554 23.9533 97.6288 23.2867 97.1888 22.46C96.7488 21.6333 96.5288 20.74 96.5288 19.78C96.5288 18.8067 96.7488 17.9067 97.1888 17.08C97.6421 16.2533 98.2754 15.5933 99.0888 15.1C99.9154 14.5933 100.895 14.34 102.029 14.34C103.162 14.34 104.135 14.5933 104.949 15.1C105.775 15.5933 106.409 16.2533 106.849 17.08C107.289 17.9067 107.509 18.8067 107.509 19.78C107.509 20.74 107.289 21.6333 106.849 22.46C106.409 23.2867 105.775 23.9533 104.949 24.46C104.135 24.9533 103.162 25.2 102.029 25.2ZM99.2888 19.78C99.2888 20.3933 99.4088 20.94 99.6488 21.42C99.8888 21.8867 100.215 22.2533 100.629 22.52C101.042 22.7867 101.509 22.92 102.029 22.92C102.535 22.92 102.995 22.7867 103.409 22.52C103.822 22.24 104.149 21.8667 104.389 21.4C104.642 20.92 104.769 20.3733 104.769 19.76C104.769 19.16 104.642 18.6267 104.389 18.16C104.149 17.68 103.822 17.3067 103.409 17.04C102.995 16.76 102.535 16.62 102.029 16.62C101.509 16.62 101.042 16.76 100.629 17.04C100.215 17.3067 99.8888 17.68 99.6488 18.16C99.4088 18.6267 99.2888 19.1667 99.2888 19.78ZM109.218 21.08V14.52H111.898V20.5C111.898 22.1133 112.478 22.92 113.638 22.92C114.158 22.92 114.658 22.7667 115.138 22.46C115.631 22.14 116.031 21.66 116.338 21.02V14.52H119.018V22C119.018 22.2933 119.064 22.5 119.158 22.62C119.251 22.7267 119.418 22.7933 119.658 22.82V25C119.391 25.0533 119.164 25.0867 118.978 25.1C118.804 25.1133 118.644 25.12 118.498 25.12C118.018 25.12 117.624 25.0133 117.318 24.8C117.024 24.5733 116.851 24.2667 116.798 23.88L116.738 23.04C116.271 23.76 115.671 24.3 114.938 24.66C114.204 25.02 113.398 25.2 112.518 25.2C111.438 25.2 110.618 24.8533 110.058 24.16C109.498 23.4533 109.218 22.4267 109.218 21.08ZM125.541 25.2C124.648 25.2 123.794 25.0533 122.981 24.76C122.168 24.4667 121.468 24.0333 120.881 23.46L121.841 21.72C122.468 22.2267 123.081 22.6 123.681 22.84C124.281 23.08 124.868 23.2 125.441 23.2C125.961 23.2 126.374 23.1067 126.681 22.92C127.001 22.7333 127.161 22.4533 127.161 22.08C127.161 21.6933 126.968 21.4333 126.581 21.3C126.194 21.1533 125.654 20.9733 124.961 20.76C124.188 20.52 123.541 20.2733 123.021 20.02C122.501 19.7667 122.108 19.46 121.841 19.1C121.588 18.74 121.461 18.2733 121.461 17.7C121.461 16.6733 121.848 15.8533 122.621 15.24C123.394 14.6267 124.421 14.32 125.701 14.32C126.448 14.32 127.154 14.44 127.821 14.68C128.488 14.9067 129.094 15.28 129.641 15.8L128.561 17.5C127.534 16.7 126.541 16.3 125.581 16.3C125.154 16.3 124.774 16.38 124.441 16.54C124.121 16.7 123.961 16.98 123.961 17.38C123.961 17.7533 124.114 18.02 124.421 18.18C124.741 18.34 125.221 18.5133 125.861 18.7C126.688 18.9533 127.388 19.2 127.961 19.44C128.548 19.68 128.988 19.9867 129.281 20.36C129.588 20.7333 129.741 21.24 129.741 21.88C129.741 22.92 129.361 23.7333 128.601 24.32C127.841 24.9067 126.821 25.2 125.541 25.2ZM136.424 25.2C135.29 25.2 134.31 24.9533 133.484 24.46C132.67 23.9667 132.037 23.3133 131.584 22.5C131.13 21.6733 130.904 20.78 130.904 19.82C130.904 18.8333 131.124 17.9267 131.564 17.1C132.017 16.26 132.657 15.5933 133.484 15.1C134.31 14.5933 135.297 14.34 136.444 14.34C137.59 14.34 138.57 14.5933 139.384 15.1C140.197 15.5933 140.817 16.2533 141.244 17.08C141.684 17.8933 141.904 18.7733 141.904 19.72C141.904 20.0667 141.884 20.3667 141.844 20.62H133.744C133.81 21.4333 134.11 22.0733 134.644 22.54C135.19 23.0067 135.817 23.24 136.524 23.24C137.057 23.24 137.557 23.1133 138.024 22.86C138.504 22.5933 138.83 22.2467 139.004 21.82L141.304 22.46C140.917 23.26 140.297 23.92 139.444 24.44C138.59 24.9467 137.584 25.2 136.424 25.2ZM133.684 18.92H139.164C139.084 18.1333 138.784 17.5 138.264 17.02C137.757 16.5267 137.137 16.28 136.404 16.28C135.684 16.28 135.064 16.5267 134.544 17.02C134.037 17.5 133.75 18.1333 133.684 18.92Z" fill="#598D66"/>
</svg>
